<svg width="18" height="17" viewBox="0 0 18 17" fill="none" xmlns="http://www.w3.org/2000/svg">
<path d="M11.4426 14.8203H2.77734C1.82746 14.8203 1.05469 14.0476 1.05469 13.0977C1.05469 12.1478 1.82746 11.375 2.77734 11.375H6.15234C7.68378 11.375 8.92969 10.1291 8.92969 8.59767C8.92969 7.06623 7.68378 5.82033 6.15234 5.82033H4.30741C4.34127 5.99098 4.35937 6.16721 4.35937 6.34767C4.35937 6.52813 4.34127 6.70437 4.30741 6.87502H6.15234C7.10223 6.87502 7.875 7.64778 7.875 8.59767C7.875 9.54756 7.10223 10.3203 6.15234 10.3203H2.77734C1.2459 10.3203 0 11.5662 0 13.0977C0 14.6291 1.2459 15.875 2.77734 15.875H11.4426C11.4087 15.7044 11.3906 15.5281 11.3906 15.3477C11.3906 15.1672 11.4087 14.991 11.4426 14.8203Z" fill="#2680FF"/>
<path d="M14.0976 13.6953C13.1865 13.6953 12.4453 14.4366 12.4453 15.3477C12.4453 16.2588 13.1865 17 14.0976 17C15.0087 17 15.75 16.2588 15.75 15.3477C15.75 14.4366 15.0087 13.6953 14.0976 13.6953Z" fill="#2680FF"/>
<path d="M5.02734 0.195328H1.65234C1.36111 0.195328 1.125 0.431437 1.125 0.722671C1.125 1.15822 1.125 4.34162 1.125 4.78213C0.471797 5.00277 0 5.62096 0 6.34767C0 7.25878 0.741234 8.00001 1.65234 8.00001C2.56345 8.00001 3.30469 7.25878 3.30469 6.34767C3.30469 5.62096 2.83289 5.00277 2.17969 4.78213V3.50002H5.02734C5.31858 3.50002 5.55469 3.26391 5.55469 2.97267V0.722671C5.55469 0.431437 5.31858 0.195328 5.02734 0.195328Z" fill="#2680FF"/>
<path d="M14.0977 1.32033C11.9459 1.32033 10.1953 3.0709 10.1953 5.22267C10.1953 6.38462 10.7015 7.46719 11.5884 8.21148L13.6278 12.2122C13.8232 12.5953 14.3722 12.5953 14.5675 12.2122L16.6069 8.21148C17.4938 7.46719 18 6.38462 18 5.22267C18 3.0709 16.2494 1.32033 14.0977 1.32033ZM14.0977 6.87501C13.1865 6.87501 12.4453 6.13378 12.4453 5.22267C12.4453 4.31156 13.1865 3.57033 14.0977 3.57033C15.0088 3.57033 15.75 4.31156 15.75 5.22267C15.75 6.13378 15.0088 6.87501 14.0977 6.87501Z" fill="#2680FF"/>
</svg>
