<svg width="17" height="16" viewBox="0 0 17 16" fill="none" xmlns="http://www.w3.org/2000/svg">
<path d="M5.84747 7.0619H4.83645C4.35808 7.0619 3.97015 7.43247 3.97015 7.88944V8.85522C3.97015 9.31219 4.35808 9.68276 4.83645 9.68276H5.84747C6.32585 9.68276 6.71378 9.31219 6.71378 8.85522V7.88944C6.71378 7.43247 6.32618 7.0619 5.84747 7.0619Z" fill="#1C4071"/>
<path d="M9.67449 7.0619H8.66313C8.18476 7.0619 7.79683 7.43247 7.79683 7.88944V8.85522C7.79683 9.31219 8.18476 9.68276 8.66313 9.68276H9.67449C10.1529 9.68276 10.5408 9.31219 10.5408 8.85522V7.88944C10.5408 7.43247 10.1529 7.0619 9.67449 7.0619Z" fill="#1C4071"/>
<path d="M13.5008 7.0619H12.4898C12.0114 7.0619 11.6232 7.43247 11.6232 7.88944V8.85522C11.6232 9.31219 12.0111 9.68276 12.4898 9.68276H13.5008C13.9792 9.68276 14.3671 9.31219 14.3671 8.85522V7.88944C14.3671 7.43247 13.9792 7.0619 13.5008 7.0619Z" fill="#1C4071"/>
<path d="M5.84747 10.6824H4.83645C4.35808 10.6824 3.97015 11.053 3.97015 11.51V12.4754C3.97015 12.9327 4.35808 13.303 4.83645 13.303H5.84747C6.32585 13.303 6.71378 12.9327 6.71378 12.4754V11.51C6.71378 11.0533 6.32618 10.6824 5.84747 10.6824Z" fill="#1C4071"/>
<path d="M9.67449 10.6824H8.66313C8.18476 10.6824 7.79683 11.053 7.79683 11.51V12.4754C7.79683 12.9327 8.18476 13.303 8.66313 13.303H9.67449C10.1529 13.303 10.5408 12.9327 10.5408 12.4754V11.51C10.5408 11.0533 10.1529 10.6824 9.67449 10.6824Z" fill="#1C4071"/>
<path d="M13.5008 10.6824H12.4898C12.0114 10.6824 11.6232 11.053 11.6232 11.51V12.4754C11.6232 12.9327 12.0111 13.303 12.4898 13.303H13.5008C13.9792 13.303 14.3671 12.9327 14.3671 12.4754V11.51C14.3671 11.0533 13.9792 10.6824 13.5008 10.6824Z" fill="#1C4071"/>
<path d="M15.4937 2.11492C15.1544 2.11492 14.879 1.82692 14.879 1.47139V0.827537C14.879 0.370567 14.4914 0 14.0127 0H13.8204C13.3417 0 12.9541 0.370567 12.9541 0.827537C12.9541 0.827537 12.9541 1.11554 12.9541 1.47139C12.9541 1.82692 12.5039 2.11492 11.9491 2.11492H7.3831C6.82801 2.11492 6.37811 1.82692 6.37811 1.47139V0.827537C6.37811 0.370567 5.99019 0 5.51181 0H5.31952C4.84115 0 4.45322 0.370567 4.45322 0.827537C4.45322 0.827537 4.45322 1.11554 4.45322 1.47139C4.45322 1.82692 4.21135 2.11492 3.91321 2.11492H3.37353C2.89515 2.11492 2.41946 2.47589 2.31092 2.92102L0.21317 11.5298C0.104631 11.9753 0.224225 12.6489 0.479492 13.0358L1.97659 15.3001C2.23219 15.6864 2.82715 16 3.30552 16H16.1088C16.5871 16 16.9751 15.6294 16.9751 15.1725V2.94246C16.9751 2.48549 16.5871 2.11492 16.1088 2.11492C16.1088 2.11492 15.8334 2.11492 15.4937 2.11492ZM15.6294 13.8227C15.6294 14.2796 15.2414 14.6502 14.7627 14.6502H3.5752C3.09682 14.6502 2.70889 14.2796 2.70889 13.8227V6.54253C2.70889 6.08556 3.09682 5.71499 3.5752 5.71499H14.7631C15.2414 5.71499 15.6297 6.08556 15.6297 6.54253L15.6294 13.8227Z" fill="#1C4071"/>
</svg>
