<svg width="19" height="19" viewBox="0 0 19 19" fill="none" xmlns="http://www.w3.org/2000/svg">
<g clip-path="url(#clip0)">
<path d="M18.7678 17.6492L13.3648 12.2461C14.4114 10.9533 15.0415 9.31064 15.0415 7.5215C15.0415 3.37479 11.6674 0.000732422 7.52074 0.000732422C3.37403 0.000732422 0 3.37476 0 7.52147C0 11.6682 3.37406 15.0422 7.52077 15.0422C9.30991 15.0422 10.9526 14.4121 12.2454 13.3655L17.6485 18.7686C17.8028 18.923 18.0055 19.0005 18.2082 19.0005C18.4109 19.0005 18.6135 18.923 18.7679 18.7686C19.0774 18.4591 19.0774 17.9587 18.7678 17.6492ZM7.52077 13.4589C4.24646 13.4589 1.58333 10.7958 1.58333 7.52147C1.58333 4.24715 4.24646 1.58403 7.52077 1.58403C10.7951 1.58403 13.4582 4.24715 13.4582 7.52147C13.4582 10.7958 10.795 13.4589 7.52077 13.4589Z" fill="#1C4071"/>
</g>
<defs>
<clipPath id="clip0">
<rect width="19" height="19" fill="white"/>
</clipPath>
</defs>
</svg>
