<svg width="17" height="16" viewBox="0 0 17 16" fill="none" xmlns="http://www.w3.org/2000/svg">
<path d="M15.4937 2.11492C15.1544 2.11492 14.879 1.82692 14.879 1.47139V0.827537C14.879 0.370567 14.4914 0 14.0127 0H13.8204C13.3417 0 12.9541 0.370567 12.9541 0.827537C12.9541 0.827537 12.9541 1.11554 12.9541 1.47139C12.9541 1.82692 12.5039 2.11492 11.9491 2.11492H7.3831C6.82801 2.11492 6.37811 1.82692 6.37811 1.47139V0.827537C6.37811 0.370567 5.99019 0 5.51181 0H5.31952C4.84115 0 4.45322 0.370567 4.45322 0.827537C4.45322 0.827537 4.45322 1.11554 4.45322 1.47139C4.45322 1.82692 4.21135 2.11492 3.91321 2.11492H3.37353C2.89515 2.11492 2.41946 2.47589 2.31092 2.92102L0.21317 11.5298C0.104631 11.9753 0.224225 12.6489 0.479492 13.0358L1.97659 15.3001C2.23219 15.6864 2.82715 16 3.30552 16H16.1088C16.5871 16 16.9751 15.6294 16.9751 15.1725V2.94246C16.9751 2.48549 16.5871 2.11492 16.1088 2.11492C16.1088 2.11492 15.8334 2.11492 15.4937 2.11492ZM15.6294 13.8227C15.6294 14.2796 15.2414 14.6502 14.7627 14.6502H3.5752C3.09682 14.6502 2.70889 14.2796 2.70889 13.8227V6.54253C2.70889 6.08556 3.09682 5.71499 3.5752 5.71499H14.7631C15.2414 5.71499 15.6297 6.08556 15.6297 6.54253L15.6294 13.8227Z" fill="#1C4071"/>
</svg>
