<svg width="16" height="17" viewBox="0 0 16 17" fill="none" xmlns="http://www.w3.org/2000/svg">
<path d="M7.95959 0.0884094C12.4836 0.0884094 16 1.95971 16 3.58424C16 3.97495 15.7738 4.36566 15.3625 4.69468L10.201 10.288C10.016 10.5142 9.93371 10.8227 9.93371 11.1106V14.6269C9.93371 15.6963 9.07003 16.5599 8.00072 16.5599C6.93141 16.5599 6.06773 15.6963 6.06773 14.6269V11.1311C6.06773 10.8432 5.98548 10.5553 5.80041 10.3086L0.638917 4.71524C0.207079 4.36566 0.00144291 3.97495 0.00144291 3.6048C-0.0808125 1.95971 3.43558 0.0884094 7.95959 0.0884094ZM7.95959 5.7023C11.3937 5.7023 13.6763 4.63299 13.6763 3.64593C13.6763 2.65887 11.3937 1.58956 7.95959 1.58956C4.52546 1.58956 2.24289 2.65887 2.24289 3.64593C2.24289 4.63299 4.52546 5.7023 7.95959 5.7023Z" fill="white"/>
</svg>
